HIERARCHY
ROOT Hips
{
	OFFSET 0.000000 71.427986 0.000000
	CHANNELS 6 Xposition Yposition Zposition Xrotation Yrotation Zrotation
	JOINT Pelvis
	{
		OFFSET 0.000000 0.000000 0.000000
		CHANNELS 3 Xrotation Yrotation Zrotation
		JOINT LeftUpLeg
		{
			OFFSET 6.797100 -2.508499 -1.318700
			CHANNELS 3 Xrotation Yrotation Zrotation
			JOINT LeftLeg
			{
				OFFSET 0.069008 -29.241863 0.690200
				CHANNELS 3 Xrotation Yrotation Zrotation
				JOINT LeftFoot
				{
					OFFSET -0.069008 -29.568123 -0.266800
					CHANNELS 3 Xrotation Yrotation Zrotation
					JOINT LeftToeBase
					{
						OFFSET 3.145500 -8.631000 16.059900
						CHANNELS 3 Xrotation Yrotation Zrotation
						End Site
						{
							OFFSET 0.000000 18.501587 0.000000
						}
					}
				}
			}
			JOINT Left_ShortSleeve
			{
				OFFSET 0.265923 -10.480953 1.153800
				CHANNELS 3 Xrotation Yrotation Zrotation
				End Site
				{
					OFFSET 1.725763 19.823879 0.000000
				}
			}
		}
		JOINT RightUpLeg
		{
			OFFSET -6.797100 -2.508499 -1.318700
			CHANNELS 3 Xrotation Yrotation Zrotation
			JOINT RightLeg
			{
				OFFSET -0.082453 -29.241932 0.688000
				CHANNELS 3 Xrotation Yrotation Zrotation
				JOINT RightFoot
				{
					OFFSET 0.082453 -29.568058 -0.264600
					CHANNELS 3 Xrotation Yrotation Zrotation
					JOINT RightToeBase
					{
						OFFSET -3.115300 -8.682800 16.113400
						CHANNELS 3 Xrotation Yrotation Zrotation
						End Site
						{
							OFFSET 0.000000 18.567114 0.000000
						}
					}
				}
			}
			JOINT Right_ShortSleeve
			{
				OFFSET -0.265923 -10.480953 1.153800
				CHANNELS 3 Xrotation Yrotation Zrotation
				End Site
				{
					OFFSET -1.725766 19.823910 0.000000
				}
			}
		}
	}
	JOINT Spine
	{
		OFFSET 0.000000 13.368103 0.470500
		CHANNELS 3 Xrotation Yrotation Zrotation
		JOINT Spine1
		{
			OFFSET 0.147000 13.837402 0.538800
			CHANNELS 3 Xrotation Yrotation Zrotation
			JOINT Spine2
			{
				OFFSET 0.168000 16.242897 -1.435500
				CHANNELS 3 Xrotation Yrotation Zrotation
				JOINT Neck
				{
					OFFSET 0.217200 18.631500 -1.679100
					CHANNELS 3 Xrotation Yrotation Zrotation
					JOINT Head
					{
						OFFSET 0.000000 6.599396 1.385900
						CHANNELS 3 Xrotation Yrotation Zrotation
						JOINT Hat
						{
							OFFSET -0.532200 27.220596 -10.096100
							CHANNELS 3 Xrotation Yrotation Zrotation
							End Site
							{
								OFFSET 0.000000 22.029861 0.000000
							}
						}
						JOINT HairD
						{
							OFFSET -10.777400 17.437393 -1.325900
							CHANNELS 3 Xrotation Yrotation Zrotation
							JOINT HairD1
							{
								OFFSET -3.290299 -11.051193 1.062200
								CHANNELS 3 Xrotation Yrotation Zrotation
								End Site
								{
									OFFSET 0.000000 11.579437 0.000000
								}
							}
						}
						JOINT HairB
						{
							OFFSET -10.777400 17.437393 1.467900
							CHANNELS 3 Xrotation Yrotation Zrotation
							JOINT HairB1
							{
								OFFSET -1.561200 -12.956299 3.590200
								CHANNELS 3 Xrotation Yrotation Zrotation
								End Site
								{
									OFFSET 0.000000 13.534866 0.000000
								}
							}
						}
						JOINT HairA
						{
							OFFSET 9.713100 17.437393 1.467900
							CHANNELS 3 Xrotation Yrotation Zrotation
							JOINT HairA1
							{
								OFFSET 1.561200 -12.956299 3.590200
								CHANNELS 3 Xrotation Yrotation Zrotation
								End Site
								{
									OFFSET 0.000000 13.534866 0.000000
								}
							}
						}
						JOINT HairC
						{
							OFFSET 9.713100 17.437393 -1.325900
							CHANNELS 3 Xrotation Yrotation Zrotation
							JOINT HairC1
							{
								OFFSET 3.290300 -11.051193 1.062200
								CHANNELS 3 Xrotation Yrotation Zrotation
								End Site
								{
									OFFSET 0.000000 11.579437 0.000000
								}
							}
						}
					}
				}
				JOINT LeftShoulder
				{
					OFFSET 5.101800 15.108002 -2.763700
					CHANNELS 3 Xrotation Yrotation Zrotation
					JOINT LeftArm
					{
						OFFSET 9.825497 2.506317 -1.597400
						CHANNELS 3 Xrotation Yrotation Zrotation
						JOINT LeftForeArm
						{
							OFFSET 21.966244 0.000000 0.000000
							CHANNELS 3 Xrotation Yrotation Zrotation
							JOINT LeftHand
							{
								OFFSET 33.879036 0.000000 0.000000
								CHANNELS 3 Xrotation Yrotation Zrotation
								JOINT LeftHandThumb1
								{
									OFFSET 6.715286 -2.359680 3.363841
									CHANNELS 3 Xrotation Yrotation Zrotation
									JOINT LeftHandThumb2
									{
										OFFSET 2.507072 -1.447464 1.447461
										CHANNELS 3 Xrotation Yrotation Zrotation
										JOINT LeftHandThumb3
										{
											OFFSET 2.898338 -1.673355 1.673357
											CHANNELS 3 Xrotation Yrotation Zrotation
											End Site
											{
												OFFSET -0.295959 3.727692 -0.131651
											}
										}
									}
								}
								JOINT LeftHandIndex1
								{
									OFFSET 14.190811 -0.254547 3.840278
									CHANNELS 3 Xrotation Yrotation Zrotation
									JOINT LeftHandIndex2
									{
										OFFSET 3.551727 0.000000 -0.000000
										CHANNELS 3 Xrotation Yrotation Zrotation
										JOINT LeftHandIndex3
										{
											OFFSET 2.894196 0.000000 0.000000
											CHANNELS 3 Xrotation Yrotation Zrotation
											End Site
											{
												OFFSET -1.000603 2.690872 0.366626
											}
										}
									}
								}
								JOINT LeftHandMiddle1
								{
									OFFSET 13.776489 0.000000 0.000000
									CHANNELS 3 Xrotation Yrotation Zrotation
									JOINT LeftHandMiddle2
									{
										OFFSET 3.438232 0.000000 0.000000
										CHANNELS 3 Xrotation Yrotation Zrotation
										JOINT LeftHandMiddle3
										{
											OFFSET 3.691551 0.000000 0.000000
											CHANNELS 3 Xrotation Yrotation Zrotation
											End Site
											{
												OFFSET -1.082298 3.499527 0.457670
											}
										}
									}
								}
								JOINT LeftHandRing1
								{
									OFFSET 13.966164 -0.268127 -3.067488
									CHANNELS 3 Xrotation Yrotation Zrotation
									JOINT LeftHandRing2
									{
										OFFSET 3.162567 0.000000 0.000000
										CHANNELS 3 Xrotation Yrotation Zrotation
										JOINT LeftHandRing3
										{
											OFFSET 3.324348 0.000000 0.000000
											CHANNELS 3 Xrotation Yrotation Zrotation
											End Site
											{
												OFFSET -0.861900 3.184998 0.405154
											}
										}
									}
								}
								JOINT LeftHandPinky1
								{
									OFFSET 13.131393 -0.168503 -5.746925
									CHANNELS 3 Xrotation Yrotation Zrotation
									JOINT LeftHandPinky2
									{
										OFFSET 2.849182 0.000000 0.000000
										CHANNELS 3 Xrotation Yrotation Zrotation
										JOINT LeftHandPinky3
										{
											OFFSET 2.805038 0.000000 0.000000
											CHANNELS 3 Xrotation Yrotation Zrotation
											End Site
											{
												OFFSET -0.882500 2.642609 0.325652
											}
										}
									}
								}
							}
							JOINT Left_Sleeve
							{
								OFFSET 6.592125 -0.646545 0.805568
								CHANNELS 3 Xrotation Yrotation Zrotation
								End Site
								{
									OFFSET -0.000179 20.275787 -0.000000
								}
							}
						}
					}
				}
				JOINT RightShoulder
				{
					OFFSET -5.731700 15.108002 -2.763700
					CHANNELS 3 Xrotation Yrotation Zrotation
					JOINT RightArm
					{
						OFFSET -9.825497 2.506317 -1.597400
						CHANNELS 3 Xrotation Yrotation Zrotation
						JOINT RightForeArm
						{
							OFFSET -21.966242 0.000000 0.000000
							CHANNELS 3 Xrotation Yrotation Zrotation
							JOINT RightHand
							{
								OFFSET -33.879032 0.000000 0.000000
								CHANNELS 3 Xrotation Yrotation Zrotation
								JOINT RightHandThumb1
								{
									OFFSET -6.715286 -2.359680 3.363841
									CHANNELS 3 Xrotation Yrotation Zrotation
									JOINT RightHandThumb2
									{
										OFFSET -2.507072 -1.447464 1.447461
										CHANNELS 3 Xrotation Yrotation Zrotation
										JOINT RightHandThumb3
										{
											OFFSET -2.898338 -1.673355 1.673357
											CHANNELS 3 Xrotation Yrotation Zrotation
											End Site
											{
												OFFSET 0.295959 3.727692 -0.131651
											}
										}
									}
								}
								JOINT RightHandIndex1
								{
									OFFSET -14.190811 -0.254547 3.840278
									CHANNELS 3 Xrotation Yrotation Zrotation
									JOINT RightHandIndex2
									{
										OFFSET -3.551727 0.000000 -0.000000
										CHANNELS 3 Xrotation Yrotation Zrotation
										JOINT RightHandIndex3
										{
											OFFSET -2.894196 0.000000 0.000000
											CHANNELS 3 Xrotation Yrotation Zrotation
											End Site
											{
												OFFSET 1.000603 2.690872 0.366626
											}
										}
									}
								}
								JOINT RightHandMiddle1
								{
									OFFSET -13.776489 0.000000 0.000000
									CHANNELS 3 Xrotation Yrotation Zrotation
									JOINT RightHandMiddle2
									{
										OFFSET -3.438232 0.000000 0.000000
										CHANNELS 3 Xrotation Yrotation Zrotation
										JOINT RightHandMiddle3
										{
											OFFSET -3.691551 0.000000 0.000000
											CHANNELS 3 Xrotation Yrotation Zrotation
											End Site
											{
												OFFSET 1.082298 3.499527 0.457670
											}
										}
									}
								}
								JOINT RightHandRing1
								{
									OFFSET -13.966164 -0.268127 -3.067488
									CHANNELS 3 Xrotation Yrotation Zrotation
									JOINT RightHandRing2
									{
										OFFSET -3.162567 0.000000 0.000000
										CHANNELS 3 Xrotation Yrotation Zrotation
										JOINT RightHandRing3
										{
											OFFSET -3.324348 0.000000 0.000000
											CHANNELS 3 Xrotation Yrotation Zrotation
											End Site
											{
												OFFSET 0.861900 3.184998 0.405154
											}
										}
									}
								}
								JOINT RightHandPinky1
								{
									OFFSET -13.131393 -0.168503 -5.746925
									CHANNELS 3 Xrotation Yrotation Zrotation
									JOINT RightHandPinky2
									{
										OFFSET -2.849182 0.000000 0.000000
										CHANNELS 3 Xrotation Yrotation Zrotation
										JOINT RightHandPinky3
										{
											OFFSET -2.805038 0.000000 0.000000
											CHANNELS 3 Xrotation Yrotation Zrotation
											End Site
											{
												OFFSET 0.882500 2.642609 0.325652
											}
										}
									}
								}
							}
							JOINT Right_Sleeve
							{
								OFFSET -6.592125 -0.646545 0.805568
								CHANNELS 3 Xrotation Yrotation Zrotation
								End Site
								{
									OFFSET 0.000179 20.275787 -0.000000
								}
							}
						}
					}
				}
				JOINT Bind_Right_JacketString
				{
					OFFSET -3.534800 11.969597 7.200700
					CHANNELS 3 Xrotation Yrotation Zrotation
					JOINT Bind_Right_JacketString1
					{
						OFFSET -0.319900 -6.102600 2.794100
						CHANNELS 3 Xrotation Yrotation Zrotation
						End Site
						{
							OFFSET 0.000000 6.719452 0.000000
						}
					}
				}
				JOINT Bind_Left_JacketString
				{
					OFFSET 2.904800 11.969597 7.200700
					CHANNELS 3 Xrotation Yrotation Zrotation
					JOINT Bind_Left_JacketString1
					{
						OFFSET 0.364800 -5.904503 3.186800
						CHANNELS 3 Xrotation Yrotation Zrotation
						End Site
						{
							OFFSET 0.000000 6.719513 0.000000
						}
					}
				}
				JOINT HairE
				{
					OFFSET 5.915200 17.612701 -11.592200
					CHANNELS 3 Xrotation Yrotation Zrotation
					JOINT HairE1
					{
						OFFSET 0.289200 -7.171898 -1.284500
						CHANNELS 3 Xrotation Yrotation Zrotation
						End Site
						{
							OFFSET 0.000000 7.291756 0.000000
						}
					}
				}
				JOINT HairF
				{
					OFFSET -0.864800 17.612701 -11.592200
					CHANNELS 3 Xrotation Yrotation Zrotation
					JOINT HairF1
					{
						OFFSET 0.000000 -14.087097 -2.127501
						CHANNELS 3 Xrotation Yrotation Zrotation
						End Site
						{
							OFFSET 0.000000 14.246841 0.000000
						}
					}
				}
				JOINT HairG
				{
					OFFSET -8.087700 17.612701 -11.592200
					CHANNELS 3 Xrotation Yrotation Zrotation
					JOINT HairG1
					{
						OFFSET -0.293600 -6.081398 -0.910100
						CHANNELS 3 Xrotation Yrotation Zrotation
						End Site
						{
							OFFSET 0.000000 6.156120 0.000000
						}
					}
				}
			}
		}
	}
	JOINT Pouch
	{
		OFFSET 0.000000 4.394501 10.847300
		CHANNELS 3 Xrotation Yrotation Zrotation
		End Site
		{
			OFFSET 0.000000 21.880577 0.000000
		}
	}
	JOINT Bag
	{
		OFFSET -13.229000 4.813004 -0.593300
		CHANNELS 3 Xrotation Yrotation Zrotation
		End Site
		{
			OFFSET 0.000000 21.880577 0.000000
		}
	}
	JOINT OccupyGuyFacialAnim_Joint
	{
		OFFSET 1.000000 -70.206398 -1.655000
		CHANNELS 3 Xrotation Yrotation Zrotation
		End Site
		{
			OFFSET 0.000000 21.880577 0.000000
		}
	}
}
MOTION
Frames: 4
Frame Time: 0.016667
-0.737680 60.645088 0.760037 11.682581 -49.446407 11.201355 0.000000 0.000001 -0.000000 -62.354996 29.780851 41.562374 46.271601 -20.448659 3.240043 -1.174259 1.237437 -9.131598 -0.000000 0.000002 0.000000 0.000004 -0.000001 -0.000000 -32.413602 -1.686893 -23.577137 54.930406 2.258360 -6.882794 -29.998676 -3.201511 23.245444 -0.000000 -0.000002 -0.000000 -0.000001 0.000001 0.000000 10.969180 2.808478 -1.964434 6.100706 5.566522 -4.284679 -5.786920 6.328147 -3.046181 2.318702 9.363324 -0.265344 -4.146678 23.161950 -3.523373 -0.000001 0.000000 -0.000000 -0.000001 0.000000 -0.000000 -0.000001 0.000000 -0.000000 -0.000001 0.000000 -0.000000 -0.000001 -0.000000 -0.000000 -0.000001 0.000000 -0.000000 -0.000001 -0.000000 -0.000000 -0.000001 0.000000 -0.000000 -0.000001 0.000000 -0.000000 -1.875348 -16.181693 -2.870490 -10.644664 2.164722 -45.510602 -22.862378 -25.786266 -15.871732 2.491052 -2.511858 6.860503 18.457973 -9.513792 13.216566 -1.150182 11.255339 -8.400813 0.000001 -0.000000 -0.000001 -1.232785 -5.771935 -0.192343 0.133959 -0.197656 -4.602108 0.000001 -0.000002 0.000001 1.884761 4.663358 -4.597406 0.476696 -1.009832 -12.986441 0.000001 0.000001 -0.000006 3.024649 7.938926 -14.103475 -0.708002 -0.566229 -18.895752 -0.000004 -0.000001 -0.000000 2.010398 6.305953 -22.386551 -0.815361 -0.210785 -16.746488 0.000003 0.000000 -0.000001 0.000001 -0.000002 0.000001 -5.074603 24.343696 1.482626 6.642378 -34.733694 57.610480 -21.031981 44.833833 19.961648 -0.087300 35.608498 7.474328 55.149550 18.649511 -29.698264 -0.442521 -14.180589 7.313153 -0.000000 -0.000001 0.000003 5.673416 7.585004 36.844144 1.050456 3.824559 68.900250 0.000004 -0.000001 0.000000 -0.125703 1.886071 45.000766 -1.168984 3.204677 68.417636 0.000002 -0.000002 0.000001 -5.311998 1.216666 58.508807 -0.745219 1.667572 48.011292 0.000002 0.000000 0.000002 -7.756801 -9.376478 47.263994 -0.526017 1.541608 45.600522 -0.000000 0.000003 -0.000003 0.000002 -0.000001 -0.000001 0.000001 0.000000 0.000001 0.000003 0.000002 -0.000000 0.000001 0.000000 -0.000000 0.000001 0.000000 -0.000000 0.000001 0.000000 0.000001 0.000003 0.000002 -0.000000 0.000001 0.000000 -0.000000 0.000001 0.000000 -0.000000 0.000001 0.000000 0.000001 0.000003 0.000002 -0.000000 0.000000 0.000001 -0.000000 0.000000 0.000001 -0.000000 0.000000 0.000001 -0.000000 
-0.666784 60.511314 0.869009 17.345387 -51.192025 15.945866 -0.000000 -0.000005 0.000000 -64.208587 28.872651 41.376729 46.990322 -19.277598 3.413856 -2.147880 3.378925 -10.280159 0.000000 -0.000000 0.000000 0.000002 -0.000001 -0.000001 -36.339444 0.068973 -23.054371 54.928166 2.569282 -6.880680 -29.514931 -2.413928 23.310152 -0.000000 0.000000 0.000000 -0.000000 -0.000002 -0.000000 6.595728 3.196394 -1.347264 4.905264 6.087645 -4.052459 -6.993470 6.770116 -2.740920 -0.991440 3.774190 0.062745 -2.765977 16.503472 -2.144350 0.000000 -0.000001 0.000000 0.000000 -0.000001 0.000000 0.000000 -0.000001 0.000000 0.000000 -0.000001 0.000000 -0.000001 0.000001 0.000000 0.000000 -0.000001 0.000000 -0.000001 0.000001 0.000000 0.000000 -0.000001 0.000000 0.000000 -0.000001 0.000000 -2.019445 -12.678700 -1.080114 -6.222599 2.408186 -48.336081 -21.610058 -26.352738 -14.989764 2.965872 -1.783793 8.412968 18.064696 -9.416762 14.872093 -0.773604 11.739604 -8.473098 -0.000001 -0.000001 0.000002 -1.184295 -5.275851 -1.333402 0.131698 -0.224514 -5.199123 -0.000003 -0.000001 -0.000000 1.542729 3.201546 -5.955568 0.477911 -1.005693 -12.916739 0.000001 -0.000000 0.000002 2.085930 6.252214 -15.478209 -0.700610 -0.534755 -18.124368 -0.000002 -0.000001 -0.000001 1.342389 5.609896 -22.650045 -0.814031 -0.196014 -16.362343 0.000001 0.000001 0.000001 0.000003 -0.000001 0.000000 -5.292525 23.824653 2.533292 6.218725 -35.596129 55.188123 -22.397626 43.628226 20.943851 3.828315 34.139225 9.201633 55.149553 18.649507 -29.698260 -0.442526 -14.180589 7.313147 -0.000001 0.000000 0.000002 5.673419 7.585001 36.844151 1.050458 3.824559 68.900250 0.000001 0.000000 0.000004 -0.125705 1.886069 45.000766 -1.168987 3.204679 68.417636 0.000002 -0.000001 0.000001 -5.311999 1.216662 58.508807 -0.745221 1.667571 48.011288 -0.000000 0.000001 -0.000000 -7.756797 -9.376481 47.263990 -0.526016 1.541605 45.600522 -0.000001 0.000001 -0.000003 0.000002 -0.000002 0.000001 0.000001 0.000002 -0.000001 0.000001 -0.000000 0.000000 0.000001 0.000002 -0.000000 0.000001 0.000002 -0.000000 0.000001 0.000002 -0.000001 0.000001 -0.000000 0.000000 0.000001 0.000002 -0.000000 0.000001 0.000002 -0.000000 0.000001 0.000002 -0.000001 0.000001 -0.000000 0.000000 -0.000000 -0.000005 0.000000 -0.000000 -0.000005 0.000000 -0.000000 -0.000005 0.000000 
-0.747379 60.331367 1.230305 23.055969 -51.169281 21.190240 -0.000001 0.000001 -0.000000 -66.220460 28.411540 40.327452 47.789416 -18.574170 3.520846 -3.165640 5.029254 -10.968277 0.000000 0.000000 -0.000000 -0.000001 0.000000 -0.000000 -39.600494 1.873076 -23.138152 54.929717 2.338972 -6.925603 -29.483857 -2.583640 23.790380 -0.000000 0.000002 0.000000 -0.000001 0.000000 -0.000001 1.923268 3.182873 -0.570267 3.783559 5.915593 -3.917741 -8.078006 6.563228 -2.613887 -5.256409 -4.314904 1.768454 -0.964761 7.189381 -0.581166 0.000000 -0.000001 -0.000000 0.000000 -0.000001 -0.000000 0.000000 -0.000001 0.000000 0.000000 -0.000001 -0.000000 -0.000000 0.000001 -0.000000 0.000000 -0.000001 -0.000000 -0.000000 0.000001 -0.000000 0.000000 -0.000001 -0.000000 0.000000 -0.000001 -0.000000 -2.338701 -9.267088 0.477313 0.012351 1.464304 -49.562230 -21.267387 -30.655719 -14.789849 4.369190 -3.947325 9.995067 17.604346 -9.261252 16.773922 -0.387770 12.245197 -8.536507 -0.000000 -0.000000 -0.000001 -1.103380 -4.719065 -2.651489 0.129742 -0.245654 -5.669179 0.000003 -0.000001 0.000001 1.185353 1.599529 -7.313236 0.484444 -0.983401 -12.540468 0.000002 0.000002 0.000001 1.012828 4.393970 -16.937189 -0.690359 -0.487700 -16.975161 -0.000002 0.000002 -0.000002 0.513804 4.787120 -22.957003 -0.812389 -0.176148 -15.846288 -0.000003 0.000001 0.000003 -0.000002 -0.000001 0.000000 -5.306081 22.788504 3.827940 7.662535 -36.585690 53.035528 -27.334634 45.566497 26.031919 8.948049 30.429306 10.709148 55.149556 18.649514 -29.698257 -0.442524 -14.180586 7.313148 -0.000002 -0.000001 -0.000000 5.673419 7.585004 36.844147 1.050455 3.824555 68.900257 0.000002 -0.000002 0.000002 -0.125708 1.886069 45.000766 -1.168985 3.204681 68.417636 0.000001 0.000002 -0.000004 -5.312001 1.216665 58.508807 -0.745220 1.667567 48.011285 0.000003 0.000000 0.000002 -7.756802 -9.376479 47.263994 -0.526015 1.541611 45.600522 0.000002 0.000002 0.000001 0.000001 -0.000001 0.000002 0.000000 -0.000000 0.000000 0.000001 -0.000000 -0.000000 0.000000 -0.000000 -0.000000 0.000000 -0.000000 -0.000000 0.000000 -0.000000 0.000000 0.000001 -0.000000 0.000000 0.000000 -0.000000 -0.000000 0.000000 -0.000000 -0.000000 0.000000 -0.000000 0.000000 0.000001 -0.000000 0.000000 -0.000001 0.000001 -0.000000 -0.000001 0.000001 -0.000000 -0.000001 0.000001 -0.000000 
-1.000242 60.174911 1.719459 27.379921 -49.744298 25.517257 -0.000000 0.000001 0.000000 -67.869923 28.513460 38.706320 48.253166 -18.387866 3.538222 -3.995778 6.024480 -11.256301 -0.000000 -0.000000 0.000000 0.000001 -0.000000 -0.000000 -41.721019 3.443518 -23.815784 54.946765 1.747224 -6.971144 -29.867089 -3.479111 24.432413 -0.000000 -0.000000 -0.000000 0.000001 0.000001 0.000000 -1.833684 2.728012 0.078538 3.102661 5.088903 -3.978473 -8.666748 5.787708 -2.761522 -8.158456 -13.179544 6.213845 0.797486 -2.094653 0.411619 -0.000000 -0.000001 -0.000000 -0.000000 -0.000001 -0.000000 -0.000000 -0.000001 -0.000000 -0.000000 -0.000001 -0.000000 0.000000 -0.000001 -0.000000 -0.000000 -0.000001 -0.000000 0.000000 -0.000001 -0.000000 -0.000000 -0.000001 -0.000000 -0.000000 -0.000001 -0.000000 -2.777915 -7.561334 3.202647 6.336167 0.679712 -51.194296 -20.920415 -35.100906 -14.588092 5.409424 -8.008546 10.884749 17.109801 -9.079800 18.724414 0.002468 12.754338 -8.604144 0.000004 0.000002 -0.000002 -0.983821 -4.156248 -4.002706 0.127624 -0.266910 -6.142139 0.000002 0.000001 -0.000003 0.803375 -0.034190 -8.704980 0.492099 -0.956445 -12.087573 0.000001 -0.000000 0.000004 -0.132059 2.515776 -18.482074 -0.680304 -0.436500 -15.731500 0.000001 0.000002 -0.000001 -0.362782 3.941758 -23.293214 -0.810856 -0.154958 -15.297269 -0.000000 -0.000001 0.000003 0.000002 0.000001 -0.000001 -5.506172 20.977703 6.822258 8.426909 -38.300819 48.596413 -35.680099 50.798951 35.841223 12.703973 25.022427 12.320503 55.149556 18.649511 -29.698260 -0.442524 -14.180583 7.313153 0.000000 -0.000001 0.000001 5.673415 7.585004 36.844147 1.050457 3.824558 68.900250 0.000003 -0.000001 0.000000 -0.125705 1.886069 45.000770 -1.168987 3.204684 68.417636 -0.000001 0.000003 -0.000006 -5.311996 1.216662 58.508807 -0.745218 1.667576 48.011285 -0.000000 -0.000002 0.000002 -7.756802 -9.376482 47.263990 -0.526016 1.541608 45.600515 0.000001 -0.000004 0.000003 0.000000 0.000003 -0.000002 -0.000000 0.000001 -0.000001 -0.000000 -0.000000 0.000000 -0.000000 0.000001 -0.000001 -0.000000 0.000001 -0.000001 -0.000000 0.000001 -0.000001 -0.000000 -0.000000 0.000000 -0.000000 0.000001 -0.000001 -0.000000 0.000001 -0.000001 -0.000000 0.000001 -0.000001 -0.000000 -0.000000 0.000000 -0.000000 0.000001 0.000000 -0.000000 0.000001 0.000000 -0.000000 0.000001 0.000000 
